<mxfile host="app.diagrams.net" agent="Mozilla/5.0 (Windows NT 10.0; Win64; x64) AppleWebKit/537.36 (KHTML, like Gecko) Chrome/135.0.0.0 Safari/537.36" version="26.2.14">
  <diagram name="Page-1" id="T3Jsi-1Xp3U9trBlVQjE">
    <mxGraphModel dx="1142" dy="551" grid="1" gridSize="10" guides="1" tooltips="1" connect="1" arrows="1" fold="1" page="1" pageScale="1" pageWidth="850" pageHeight="1100" math="0" shadow="0">
      <root>
        <mxCell id="0" />
        <mxCell id="1" parent="0" />
        <mxCell id="suTeFHeydZLv4dnfR9ac-5" value="" style="edgeStyle=orthogonalEdgeStyle;rounded=0;orthogonalLoop=1;jettySize=auto;html=1;" edge="1" parent="1" source="suTeFHeydZLv4dnfR9ac-1" target="suTeFHeydZLv4dnfR9ac-2">
          <mxGeometry relative="1" as="geometry" />
        </mxCell>
        <mxCell id="suTeFHeydZLv4dnfR9ac-1" value="start" style="rounded=0;whiteSpace=wrap;html=1;" vertex="1" parent="1">
          <mxGeometry x="350" y="30" width="120" height="60" as="geometry" />
        </mxCell>
        <mxCell id="suTeFHeydZLv4dnfR9ac-4" value="" style="edgeStyle=orthogonalEdgeStyle;rounded=0;orthogonalLoop=1;jettySize=auto;html=1;" edge="1" parent="1" source="suTeFHeydZLv4dnfR9ac-2" target="suTeFHeydZLv4dnfR9ac-3">
          <mxGeometry relative="1" as="geometry" />
        </mxCell>
        <mxCell id="suTeFHeydZLv4dnfR9ac-2" value="generate a random word" style="rounded=1;whiteSpace=wrap;html=1;" vertex="1" parent="1">
          <mxGeometry x="350" y="130" width="120" height="60" as="geometry" />
        </mxCell>
        <mxCell id="suTeFHeydZLv4dnfR9ac-7" value="" style="edgeStyle=orthogonalEdgeStyle;rounded=0;orthogonalLoop=1;jettySize=auto;html=1;" edge="1" parent="1" source="suTeFHeydZLv4dnfR9ac-3" target="suTeFHeydZLv4dnfR9ac-6">
          <mxGeometry relative="1" as="geometry" />
        </mxCell>
        <mxCell id="suTeFHeydZLv4dnfR9ac-3" value="Generate the blank as letters in word&amp;nbsp;" style="whiteSpace=wrap;html=1;rounded=1;" vertex="1" parent="1">
          <mxGeometry x="350" y="230" width="120" height="60" as="geometry" />
        </mxCell>
        <mxCell id="suTeFHeydZLv4dnfR9ac-9" value="" style="edgeStyle=orthogonalEdgeStyle;rounded=0;orthogonalLoop=1;jettySize=auto;html=1;" edge="1" parent="1" source="suTeFHeydZLv4dnfR9ac-6" target="suTeFHeydZLv4dnfR9ac-8">
          <mxGeometry relative="1" as="geometry" />
        </mxCell>
        <mxCell id="suTeFHeydZLv4dnfR9ac-6" value="ask user to guess the word&amp;nbsp;" style="whiteSpace=wrap;html=1;rounded=1;" vertex="1" parent="1">
          <mxGeometry x="350" y="370" width="120" height="60" as="geometry" />
        </mxCell>
        <mxCell id="suTeFHeydZLv4dnfR9ac-11" style="edgeStyle=orthogonalEdgeStyle;rounded=0;orthogonalLoop=1;jettySize=auto;html=1;entryX=0.5;entryY=0;entryDx=0;entryDy=0;" edge="1" parent="1" source="suTeFHeydZLv4dnfR9ac-8" target="suTeFHeydZLv4dnfR9ac-10">
          <mxGeometry relative="1" as="geometry" />
        </mxCell>
        <mxCell id="suTeFHeydZLv4dnfR9ac-13" style="edgeStyle=orthogonalEdgeStyle;rounded=0;orthogonalLoop=1;jettySize=auto;html=1;entryX=0.5;entryY=0;entryDx=0;entryDy=0;" edge="1" parent="1" source="suTeFHeydZLv4dnfR9ac-8" target="suTeFHeydZLv4dnfR9ac-12">
          <mxGeometry relative="1" as="geometry" />
        </mxCell>
        <mxCell id="suTeFHeydZLv4dnfR9ac-8" value="is the guessed letter in the word" style="rhombus;whiteSpace=wrap;html=1;rounded=1;" vertex="1" parent="1">
          <mxGeometry x="345" y="510" width="130" height="130" as="geometry" />
        </mxCell>
        <mxCell id="suTeFHeydZLv4dnfR9ac-16" style="edgeStyle=orthogonalEdgeStyle;rounded=0;orthogonalLoop=1;jettySize=auto;html=1;entryX=0.5;entryY=0;entryDx=0;entryDy=0;" edge="1" parent="1" source="suTeFHeydZLv4dnfR9ac-10" target="suTeFHeydZLv4dnfR9ac-14">
          <mxGeometry relative="1" as="geometry" />
        </mxCell>
        <mxCell id="suTeFHeydZLv4dnfR9ac-10" value="replace the blank with the letter&amp;nbsp;" style="rounded=1;whiteSpace=wrap;html=1;" vertex="1" parent="1">
          <mxGeometry x="160" y="670" width="120" height="60" as="geometry" />
        </mxCell>
        <mxCell id="suTeFHeydZLv4dnfR9ac-18" style="edgeStyle=orthogonalEdgeStyle;rounded=0;orthogonalLoop=1;jettySize=auto;html=1;" edge="1" parent="1" source="suTeFHeydZLv4dnfR9ac-12">
          <mxGeometry relative="1" as="geometry">
            <mxPoint x="560" y="780" as="targetPoint" />
          </mxGeometry>
        </mxCell>
        <mxCell id="suTeFHeydZLv4dnfR9ac-12" value="Lose a life" style="rounded=1;whiteSpace=wrap;html=1;" vertex="1" parent="1">
          <mxGeometry x="500" y="670" width="120" height="60" as="geometry" />
        </mxCell>
        <mxCell id="suTeFHeydZLv4dnfR9ac-14" value="are all the blanks filled?" style="rhombus;whiteSpace=wrap;html=1;" vertex="1" parent="1">
          <mxGeometry x="180" y="780" width="80" height="80" as="geometry" />
        </mxCell>
        <mxCell id="suTeFHeydZLv4dnfR9ac-20" style="edgeStyle=orthogonalEdgeStyle;rounded=0;orthogonalLoop=1;jettySize=auto;html=1;exitX=1;exitY=0.5;exitDx=0;exitDy=0;entryX=1;entryY=0.5;entryDx=0;entryDy=0;" edge="1" parent="1">
          <mxGeometry relative="1" as="geometry">
            <mxPoint x="50" y="400" as="targetPoint" />
            <mxPoint x="180" y="820" as="sourcePoint" />
          </mxGeometry>
        </mxCell>
        <mxCell id="suTeFHeydZLv4dnfR9ac-15" value="run out of lifes?&amp;nbsp;" style="rhombus;whiteSpace=wrap;html=1;" vertex="1" parent="1">
          <mxGeometry x="520" y="780" width="80" height="80" as="geometry" />
        </mxCell>
      </root>
    </mxGraphModel>
  </diagram>
</mxfile>
